<svg xml:space="preserve" style="max-height: 500px" viewBox="0 0 100 103" y="0px" x="0px" version="1.1" xmlns:xlink="http://www.w3.org/1999/xlink" xmlns="http://www.w3.org/2000/svg" width="100" height="103"><switch><g><g><path d="M61.3,73.5C58.1,75.7,54.2,77,50,77c-4.2,0-8-1.3-11.2-3.5c-5.7,2-9.7,7.4-9.7,13.7v9c0,0.7,0.6,1.3,1.3,1.3h39.3     c0.7,0,1.3-0.6,1.3-1.3v-9C70.9,80.9,66.9,75.5,61.3,73.5z"/><circle r="12.6" cy="57.2" cx="50"/><path d="M50,28.8c7.3,0,13.2-5.9,13.2-13.2c0-7.3-5.9-13.2-13.2-13.2c-7.3,0-13.2,5.9-13.2,13.2C36.8,22.9,42.7,28.8,50,28.8z      M48,8.8c0-1.1,0.9-2,2-2c1.1,0,2,0.9,2,2v4.9h3.4c1.1,0,2,0.9,2,2s-0.9,2-2,2H50c-1.1,0-2-0.9-2-2V8.8z"/><path d="M29.1,58.6c1.2,0,2.1-0.9,2.1-2.1s-0.9-2.1-2.1-2.1h-9c-0.9-2.7-3.4-4.7-6.5-4.7c-3.8,0-6.8,3.1-6.8,6.8     c0,3.8,3.1,6.8,6.8,6.8c3,0,5.6-2,6.5-4.7H29.1z"/><path d="M63.2,43.3c0.4,0.4,1,0.6,1.5,0.6c0.5,0,1.1-0.2,1.5-0.6l6.5-6.5c0.9,0.5,2,0.8,3.1,0.8c3.8,0,6.8-3.1,6.8-6.8     s-3.1-6.8-6.8-6.8c-3.8,0-6.8,3.1-6.8,6.8c0,1.1,0.3,2.1,0.8,3.1l-6.5,6.5C62.3,41.2,62.3,42.5,63.2,43.3z"/><path d="M86.4,49.7c-3,0-5.6,2-6.5,4.7h-9c-1.2,0-2.1,0.9-2.1,2.1s0.9,2.1,2.1,2.1h9c0.9,2.7,3.4,4.7,6.5,4.7     c3.8,0,6.8-3.1,6.8-6.8C93.2,52.8,90.1,49.7,86.4,49.7z"/><path d="M24.3,37.6c1.1,0,2.2-0.3,3.1-0.8l6.5,6.5c0.4,0.4,0.9,0.6,1.5,0.6c0.5,0,1.1-0.2,1.5-0.6c0.8-0.8,0.8-2.2,0-3l-6.5-6.5     c0.5-0.9,0.8-2,0.8-3.1c0-3.8-3.1-6.8-6.8-6.8s-6.8,3.1-6.8,6.8S20.5,37.6,24.3,37.6z"/></g></g></switch><text font-family="'Helvetica Neue', Helvetica, Arial-Unicode, Arial, Sans-serif" font-weight="bold" font-size="5px" fill="#000000" y="115" x="0">Created by Adrien Coquet</text><text font-family="'Helvetica Neue', Helvetica, Arial-Unicode, Arial, Sans-serif" font-weight="bold" font-size="5px" fill="#000000" y="120" x="0">from the Noun Project</text></svg>